<svg width="172" height="43" viewBox="0 0 172 43" fill="none" xmlns="http://www.w3.org/2000/svg">
<path d="M16.7497 14.3239H13.7922C13.6785 12.9987 13.4668 11.8325 13.1571 10.8253C12.8475 9.81812 12.4683 8.96335 12.0196 8.26098C11.5709 7.55861 11.0685 7.02852 10.5124 6.67071C9.96263 6.3129 9.37808 6.134 8.75878 6.134C7.64023 6.134 6.6386 6.72372 5.75387 7.90317C4.87547 9.08262 4.18032 10.812 3.66845 13.0914C3.16289 15.3708 2.91011 18.1538 2.91011 21.4404C2.91011 24.7534 3.16289 27.5496 3.66845 29.829C4.18032 32.1084 4.87863 33.8312 5.76335 34.9974C6.64808 36.1636 7.64339 36.7467 8.7493 36.7467C9.36228 36.7467 9.94368 36.5744 10.4935 36.2299C11.0496 35.8721 11.552 35.3486 12.0007 34.6595C12.4493 33.9704 12.8285 33.1288 13.1382 32.1349C13.4541 31.1278 13.6722 29.9748 13.7922 28.6761L16.7497 28.696C19.8186 28.9146 16.2853 32.5391 15.8303 34.2222C15.3816 35.8919 14.8033 37.3364 14.0956 38.5556C13.3941 39.7616 12.5915 40.6959 11.6878 41.3585C10.7842 42.0211 9.79833 42.3524 8.73034 42.3524C7.04936 42.3524 5.55165 41.5175 4.2372 39.8477C2.92275 38.1647 1.88636 35.7594 1.12802 32.6319C0.376008 29.5044 0 25.7738 0 21.4404C0 17.0936 0.379168 13.3631 1.1375 10.2488C1.89584 7.12129 2.93223 4.72263 4.24668 3.05285C5.56113 1.36981 7.05568 0.52829 8.73034 0.52829C9.76041 0.52829 10.721 0.839718 11.612 1.46258C12.5094 2.07218 13.3151 2.97333 14.0292 4.16604C14.7433 5.34549 15.3342 6.78998 15.8018 8.49952C16.2695 10.1958 16.5854 12.1373 16.7497 14.3239Z" fill="#4C3E28"/>
<path d="M24.2644 42.4717C23.3417 42.4717 22.5076 42.1139 21.7619 41.3983C21.0162 40.6694 20.4253 39.6158 19.9893 38.2376C19.5595 36.8594 19.3447 35.1697 19.3447 33.1686C19.3447 31.4458 19.5027 30.0278 19.8186 28.9146C20.1346 27.8014 20.5612 26.9202 21.0983 26.2708C21.6355 25.6214 22.2358 25.1311 22.8994 24.7998C23.5629 24.4685 24.2391 24.2167 24.9279 24.0444C25.8 23.8324 26.5078 23.6601 27.0513 23.5276C27.5947 23.3818 27.9897 23.1499 28.2361 22.8318C28.4826 22.5138 28.6058 21.9969 28.6058 21.2813V21.1422C28.6058 19.4061 28.372 18.061 27.9044 17.1069C27.4431 16.1527 26.7542 15.6756 25.8379 15.6756C24.8837 15.6756 24.1317 16.1196 23.5819 17.0075C23.0384 17.8821 22.6624 18.8562 22.4538 19.9296L19.7902 18.6574C20.1062 16.8021 20.5675 15.3046 21.1742 14.1649C21.7871 13.0119 22.4918 12.177 23.288 11.6602C24.0843 11.1301 24.9216 10.8651 25.8 10.8651C26.3814 10.8651 26.9975 11.0108 27.6484 11.3024C28.3057 11.5807 28.9187 12.0975 29.4874 12.8529C30.0625 13.6083 30.5333 14.6883 30.8998 16.0931C31.2663 17.4846 31.4496 19.2935 31.4496 21.5199V41.7958H28.6817V37.6214H28.5679C28.3847 38.39 28.1098 39.1454 27.7432 39.8875C27.3767 40.6296 26.9059 41.2459 26.3308 41.7362C25.7558 42.2265 25.0669 42.4717 24.2644 42.4717ZM24.8805 37.7009C25.6641 37.7009 26.334 37.3762 26.8901 36.7268C27.4525 36.0775 27.8791 35.2293 28.1698 34.1824C28.4668 33.1222 28.6153 31.9892 28.6153 30.7832V26.8473C28.5142 27.0593 28.3183 27.2581 28.0276 27.4436C27.7432 27.6159 27.4178 27.7683 27.0513 27.9008C26.6847 28.0201 26.3277 28.1327 25.9801 28.2388C25.6325 28.3315 25.3418 28.411 25.108 28.4773C24.5582 28.6231 24.0558 28.8682 23.6008 29.2128C23.1521 29.5574 22.7919 30.0543 22.5202 30.7037C22.2548 31.3398 22.1221 32.1879 22.1221 33.2481C22.1221 34.7191 22.3812 35.8323 22.8994 36.5877C23.4176 37.3298 24.0779 37.7009 24.8805 37.7009Z" fill="black"/>
<path d="M38.059 1.08488V41.7958L33.1943 40.2254L35.2247 1.08488H38.059Z" fill="black"/>
<path d="M48.1472 42.4121C46.7127 42.4121 45.4772 41.7693 44.4408 40.4839C43.4108 39.1851 42.6145 37.3629 42.0521 35.0173C41.496 32.6584 41.2179 29.8953 41.2179 26.728C41.2179 23.6005 41.496 20.844 42.0521 18.4586C42.6145 16.0732 43.3981 14.2112 44.4029 12.8728C45.414 11.5343 46.5958 10.8651 47.9481 10.8651C48.7697 10.8651 49.5659 11.15 50.3369 11.7198C51.1079 12.2897 51.7998 13.1842 52.4128 14.4034C53.0258 15.6226 53.5093 17.2063 53.8632 19.1543C54.217 21.0892 54.394 23.4414 54.394 26.2112V28.3183H42.8199V23.8655H51.6166C51.6166 22.3018 51.4649 20.9169 51.1616 19.7109C50.8582 18.4917 50.4317 17.5309 49.8819 16.8286C49.3384 16.1262 48.7002 15.775 47.9671 15.775C47.1708 15.775 46.4757 16.1858 45.8817 17.0075C42.8199 7.90317 44.839 18.876 44.5167 20.188C44.2007 21.4867 42.8199 22.5204 42.8199 24.0444V27.9528C42.8199 29.9937 44.2133 31.6777 44.5546 33.109C44.9022 34.5402 45.3856 35.6335 46.0049 36.3889C46.6242 37.131 47.3478 37.5021 48.1756 37.5021C48.7128 37.5021 49.2025 37.3431 49.6449 37.025C50.0873 36.6937 50.4696 36.2034 50.7919 35.554C51.1142 34.9047 51.3606 34.1029 51.5313 33.1487L54.2139 34.1625C53.999 35.8191 53.6135 37.2702 53.0574 38.5159C52.5076 39.7484 51.8156 40.7091 50.9815 41.3983C50.1536 42.0741 49.2089 42.4121 48.1472 42.4121Z" fill="black"/>
<path d="M57.7662 41.7958V6.35266L60.6005 1.08488V16.2123H60.7711C60.9354 15.5762 61.1724 14.8407 61.4821 14.0058C61.7917 13.1709 62.2214 12.4421 62.7712 11.8192C63.321 11.1831 64.0478 10.8651 64.9514 10.8651C66.1269 10.8651 67.1759 11.4879 68.0985 12.7336C69.0212 13.9793 69.7447 15.775 70.2693 18.1207C70.8001 20.4663 71.0655 23.289 71.0655 26.5889C71.0655 29.8887 70.8033 32.718 70.2787 35.0769C69.7542 37.4226 69.0338 39.2315 68.1175 40.5037C67.2012 41.7627 66.1553 42.3922 64.9799 42.3922C64.0952 42.3922 63.3716 42.0807 62.8091 41.4579C62.253 40.835 61.817 40.1062 61.501 39.2713C61.185 38.4364 60.9417 37.6942 60.7711 37.0449H60.5341V41.7958H57.7662ZM60.5436 26.5292C60.5436 28.6761 60.6921 30.5579 60.9891 32.1747C61.2862 33.7915 61.7159 35.057 62.2783 35.9715C62.8407 36.8726 63.5296 37.3232 64.3448 37.3232C65.1916 37.3232 65.8994 36.8527 66.4681 35.9118C67.0369 34.9577 67.4666 33.6656 67.7573 32.0355C68.0543 30.4055 68.2028 28.5701 68.2028 26.5292C68.2028 24.5149 68.0575 22.7059 67.7668 21.1024C67.4824 19.4989 67.0527 18.2333 66.4776 17.3057C65.9088 16.378 65.1979 15.9142 64.3448 15.9142C63.5232 15.9142 62.8281 16.3581 62.2593 17.246C61.6969 18.1339 61.2704 19.373 60.9797 20.9633C60.689 22.5535 60.5436 24.4089 60.5436 26.5292Z" fill="black"/>
<path d="M76.6843 1.08488V4.90154C76.6843 6.02798 76.5832 7.21406 76.381 8.45977C76.1851 9.69223 75.907 10.8783 75.5468 12.018C75.1866 13.1577 74.7632 14.1384 74.2766 14.96L72.8737 12.8529C73.2465 11.7132 73.5688 10.5006 73.8406 9.21515C74.1186 7.92968 74.2576 6.51168 74.2576 4.96117V1.08488H76.6843Z" fill="black"/>
<path d="M88.4954 18.717L85.9265 19.6712C85.8191 18.9821 85.6485 18.3261 85.4146 17.7032C85.1871 17.0804 84.8775 16.5701 84.4857 16.1726C84.0939 15.775 83.6041 15.5762 83.0164 15.5762C82.2138 15.5762 81.544 15.9539 81.0068 16.7093C80.4697 17.4514 80.2011 18.4122 80.2011 19.5917C80.2011 20.6121 80.3812 21.4337 80.7414 22.0566C81.1016 22.6794 81.683 23.1897 82.4856 23.5872L84.7985 24.7004C86.1382 25.3498 87.1367 26.3503 87.7939 27.702C88.4512 29.0538 88.7798 30.8097 88.7798 32.9698C88.7798 34.7986 88.527 36.4287 88.0214 37.8599C87.5222 39.2779 86.8239 40.3911 85.9265 41.1995C85.0355 42.0079 84.0022 42.4121 82.8268 42.4121C81.1964 42.4121 79.8662 41.6832 78.8361 40.2254C77.806 38.7544 74.0744 34.8781 73.8406 32.1747L79.6797 33.0891C79.8504 34.5866 80.2011 35.7197 80.7319 36.4883C81.2628 37.2437 81.9547 37.6214 82.8079 37.6214C83.7368 37.6214 84.4794 37.2172 85.0355 36.4088C85.5916 35.5871 85.8697 34.5866 85.8697 33.4071C85.8697 32.453 85.699 31.6512 85.3578 31.0019C85.0228 30.3525 84.5078 29.8622 83.8127 29.5309L81.3481 28.3978C79.9894 27.7484 78.9846 26.7148 78.3337 25.2968C77.6891 23.8788 77.3668 22.0831 77.3668 19.9097C77.3668 18.1074 77.607 16.5304 78.0872 15.1787C78.5675 13.8269 79.2311 12.7734 80.0779 12.018C80.9247 11.2494 81.8947 10.8651 82.988 10.8651C84.5615 10.8651 85.8001 11.5807 86.7038 13.0119C87.6075 14.4299 88.2047 16.3316 88.4954 18.717Z" fill="black"/>
<path d="M99.1879 41.7958V4.90154L106.297 1.08488C107.675 1.08488 108.816 1.56197 109.719 2.51613C110.623 3.45704 111.299 4.73588 111.748 6.35266C112.197 7.95618 112.421 9.76511 112.421 11.7795C112.421 13.4757 112.272 14.907 111.975 16.0732C111.678 17.2261 111.28 18.1538 110.781 18.8562C110.288 19.5453 109.745 20.0489 109.151 20.3669V20.7645C109.795 20.8308 110.424 21.2681 111.037 22.0765C111.656 22.8716 112.168 24.0047 112.573 25.4757C112.977 26.9467 113.179 28.7357 113.179 30.8428C113.179 32.9234 112.945 34.792 112.478 36.4485C112.016 38.0918 111.302 39.3972 110.335 40.3646C109.369 41.3187 108.133 41.7958 106.629 41.7958H99.1879ZM102.117 36.528H106.345C107.748 36.528 108.752 35.9582 109.359 34.8185C109.966 33.6788 110.269 32.2542 110.269 30.5447C110.269 29.2592 110.114 28.0797 109.805 27.0063C109.495 25.9329 109.053 25.0781 108.478 24.442C107.909 23.8059 107.233 23.4878 106.449 23.4878H102.117V36.528ZM102.117 18.6971H106.041C106.699 18.6971 107.289 18.4321 107.814 17.902C108.345 17.3719 108.765 16.6298 109.075 15.6756C109.391 14.7082 109.549 13.5685 109.549 12.2565C109.549 10.5735 109.267 9.16214 108.705 8.02244C108.143 6.88275 107.28 6.3129 106.117 6.3129H102.117V18.6971Z" fill="#BB6413"/>
<path d="M116.426 41.7958V11.2626H119.165V16.1129H119.317C119.582 14.4697 120.05 13.1776 120.72 12.2367C121.396 11.2825 122.161 10.8054 123.014 10.8054C123.191 10.8054 123.399 10.8187 123.64 10.8452C123.886 10.8717 124.079 10.9048 124.218 10.9446V16.6298C124.104 16.5635 123.902 16.4906 123.611 16.4111C123.32 16.3184 124.508 16.6298 124.218 16.6298C123.548 16.6298 121.472 16.5701 120.947 17.1665C120.429 17.7496 120.018 18.5646 119.715 19.6115C119.412 20.6452 119.26 21.8247 119.26 23.1499L120.72 41.1995L116.426 41.7958Z" fill="black"/>
<path d="M130.777 42.4717C129.855 42.4717 129.021 42.1139 128.275 41.3983C127.529 40.6694 126.938 39.6158 126.502 38.2376C126.072 36.8594 125.858 35.1697 125.858 33.1686C125.858 31.4458 126.016 30.0278 126.332 28.9146C126.648 27.8014 127.074 26.9202 127.611 26.2708C128.148 25.6214 128.749 25.1311 129.412 24.7998C130.076 24.4685 130.752 24.2167 131.441 24.0444C132.313 23.8324 133.021 23.6601 133.564 23.5276C134.108 23.3818 134.503 23.1499 134.749 22.8318C134.996 22.5138 135.119 21.9969 135.119 21.2813V21.1422C135.119 19.4061 134.885 18.061 134.417 17.1069C133.956 16.1527 133.267 15.6756 132.351 15.6756C131.397 15.6756 130.645 16.1196 130.095 17.0075C129.551 17.8821 129.175 18.8562 128.967 19.9296L126.303 18.6574C126.619 16.8021 127.08 15.3046 127.687 14.1649C128.3 13.0119 129.005 12.177 129.801 11.6602C130.597 11.1301 131.435 10.8651 132.313 10.8651C132.894 10.8651 133.511 11.0108 134.161 11.3024C134.819 11.5807 135.432 12.0975 136 12.8529C136.575 13.6083 137.046 14.6883 137.413 16.0931C137.779 17.4846 137.963 19.2935 137.963 21.5199L139.968 42.4717L135.195 41.7958V37.6214H135.081C134.898 38.39 134.623 39.1454 134.256 39.8875C133.89 40.6296 133.419 41.2459 132.844 41.7362C132.269 42.2265 131.58 42.4717 130.777 42.4717ZM131.393 37.7009C132.177 37.7009 132.847 37.3762 133.403 36.7268C133.965 36.0775 134.392 35.2293 134.683 34.1824C134.98 33.1222 135.128 31.9892 135.128 30.7832V26.8473C135.027 27.0593 134.831 27.2581 134.541 27.4436C134.256 27.6159 133.931 27.7683 133.564 27.9008C133.198 28.0201 132.841 28.1327 132.493 28.2388C132.146 28.3315 131.855 28.411 131.621 28.4773C131.071 28.6231 130.569 28.8682 130.114 29.2128C129.665 29.5574 129.305 30.0543 129.033 30.7037C128.768 31.3398 128.635 32.1879 128.635 33.2481C128.635 34.7191 128.894 35.8323 129.412 36.5877C129.931 37.3298 130.591 37.7009 131.393 37.7009Z" fill="black"/>
<path d="M144.572 23.6667V41.7958H141.738L137.963 11.3024L144.458 11.2626V16.2322H144.638C144.973 14.6154 145.498 13.3167 146.212 12.3361C146.932 11.3554 147.839 10.8651 148.932 10.8651C149.925 10.8651 150.793 11.3024 151.539 12.177C152.285 13.0384 152.863 14.3239 153.274 16.0334C153.685 17.743 153.89 19.8567 153.89 22.3746V41.7958H151.056V23.0903C151.056 20.8771 150.781 19.1477 150.231 17.902C149.681 16.643 148.926 16.0136 147.965 16.0136C147.308 16.0136 146.724 16.3117 146.212 16.9081C145.706 17.5044 145.305 18.3791 145.008 19.532C144.717 20.6717 144.572 22.05 144.572 23.6667Z" fill="black"/>
<path d="M163.142 42.3922C161.966 42.3922 160.917 41.7627 159.995 40.5037C159.078 39.2315 158.358 37.4226 157.833 35.0769C157.315 32.718 155.984 27.3442 155.984 24.0444C155.984 20.7446 157.318 20.4663 157.843 18.1207C158.374 15.775 159.1 13.9793 160.023 12.7336C160.946 11.4879 161.992 10.8651 163.161 10.8651C164.064 10.8651 164.791 11.1831 165.341 11.8192C165.897 12.4421 166.327 13.1709 166.63 14.0058C166.94 14.8407 167.18 15.5762 167.35 16.2123H167.521V1.08488L172 6.35266L170.355 41.7958H167.587V37.0449H167.35C167.18 37.6942 166.933 38.4364 166.611 39.2713C166.295 40.1062 165.859 40.835 165.303 41.4579C164.747 42.0807 164.026 42.3922 163.142 42.3922ZM163.767 37.3232C164.583 37.3232 165.271 36.8726 165.834 35.9715C166.403 35.057 166.832 33.7915 167.123 32.1747C167.42 30.5579 167.568 28.6761 167.568 26.5292C167.568 24.4089 167.423 22.5535 167.132 20.9633C166.842 19.373 166.415 18.1339 165.853 17.246C165.29 16.3581 164.595 15.9142 163.767 15.9142C162.914 15.9142 162.203 16.378 161.635 17.3057C161.066 18.2333 160.636 19.4989 160.345 21.1024C160.061 22.7059 159.919 24.5149 159.919 26.5292C159.919 28.5701 160.064 30.4055 160.355 32.0355C160.645 33.6656 161.075 34.9577 161.644 35.9118C162.219 36.8527 162.927 37.3232 163.767 37.3232Z" fill="black"/>
</svg>
