<svg width="149" height="35" viewBox="0 0 149 35" fill="none" xmlns="http://www.w3.org/2000/svg">
<path d="M14.5099 11.5118H11.9479C11.8494 10.406 11.666 9.43286 11.3977 8.59242C11.1295 7.75198 10.801 7.03871 10.4123 6.45261C10.0237 5.86651 9.58844 5.42417 9.10669 5.12559C8.63042 4.82701 8.12404 4.67773 7.58754 4.67773C6.61857 4.67773 5.75088 5.16983 4.98446 6.15403C4.22351 7.13823 3.62133 8.58136 3.1779 10.4834C2.73995 12.3855 2.52097 14.7077 2.52097 17.4502C2.52097 20.2149 2.73995 22.5482 3.1779 24.4502C3.62133 26.3523 4.22625 27.7899 4.99267 28.763C5.75909 29.7362 6.62131 30.2227 7.57933 30.2227C8.11035 30.2227 8.614 30.079 9.09027 29.7915C9.57202 29.4929 10.0072 29.0561 10.3959 28.481C10.7846 27.906 11.1131 27.2038 11.3813 26.3744C11.655 25.534 11.8439 24.5719 11.9479 23.4882L14.5099 23.5047C17.1685 23.6872 14.1076 26.7117 13.7134 28.1161C13.3247 29.5095 12.8238 30.7149 12.2107 31.7322C11.603 32.7385 10.9078 33.5182 10.1249 34.0711C9.34209 34.624 8.48809 34.9005 7.56291 34.9005C6.10671 34.9005 4.80928 34.2038 3.6706 32.8104C2.53192 31.406 1.63411 29.3989 0.977184 26.7891C0.325728 24.1793 0 21.0664 0 17.4502C0 13.8231 0.328465 10.7101 0.985395 8.11137C1.64233 5.50158 2.54013 3.5 3.67881 2.10664C4.81749 0.702212 6.11219 0 7.56291 0C8.45524 0 9.28735 0.259874 10.0592 0.779622C10.8366 1.28831 11.5346 2.04028 12.1532 3.03555C12.7718 4.01975 13.2837 5.22512 13.6888 6.65166C14.0939 8.06714 14.3676 9.6872 14.5099 11.5118Z" fill="#4C3E28"/>
<path d="M21.0197 35C20.2205 35 19.4978 34.7014 18.8518 34.1043C18.2059 33.4961 17.694 32.6169 17.3163 31.4668C16.944 30.3167 16.7579 28.9068 16.7579 27.237C16.7579 25.7994 16.8947 24.6161 17.1685 23.6872C17.4422 22.7583 17.8117 22.0229 18.277 21.481C18.7424 20.9392 19.2624 20.53 19.8372 20.2536C20.4121 19.9771 20.9978 19.767 21.5945 19.6232C22.35 19.4463 22.9631 19.3025 23.4339 19.1919C23.9047 19.0703 24.2469 18.8768 24.4604 18.6114C24.6739 18.346 24.7806 17.9147 24.7806 17.3175V17.2014C24.7806 15.7528 24.5781 14.6303 24.173 13.8341C23.7733 13.0379 23.1766 12.6398 22.3828 12.6398C21.5562 12.6398 20.9048 13.0103 20.4285 13.7512C19.9577 14.481 19.6319 15.2938 19.4513 16.1896L17.1438 15.128C17.4175 13.5798 17.8172 12.3302 18.3427 11.3791C18.8737 10.4171 19.4841 9.72038 20.1739 9.2891C20.8637 8.84676 21.5891 8.62559 22.35 8.62559C22.8536 8.62559 23.3874 8.74724 23.9513 8.99052C24.5206 9.22275 25.0516 9.65403 25.5443 10.2844C26.0425 10.9147 26.4503 11.816 26.7679 12.9882C27.0854 14.1493 27.2441 15.6588 27.2441 17.5166V34.436H24.8463V30.9526H24.7478C24.589 31.594 24.3509 32.2243 24.0334 32.8436C23.7159 33.4629 23.308 33.9771 22.8098 34.3863C22.3117 34.7954 21.715 35 21.0197 35ZM21.5535 31.019C22.2323 31.019 22.8126 30.748 23.2943 30.2062C23.7816 29.6643 24.1511 28.9566 24.4029 28.0829C24.6602 27.1983 24.7889 26.2528 24.7889 25.2464V21.9621C24.7013 22.139 24.5316 22.3049 24.2797 22.4597C24.0334 22.6035 23.7514 22.7307 23.4339 22.8412C23.1164 22.9408 22.8071 23.0348 22.506 23.1232C22.2049 23.2006 21.9531 23.267 21.7505 23.3223C21.2743 23.4439 20.8391 23.6485 20.4449 23.936C20.0562 24.2235 19.7442 24.6382 19.5088 25.1801C19.2788 25.7109 19.1639 26.4186 19.1639 27.3033C19.1639 28.5308 19.3883 29.4597 19.8372 30.09C20.2861 30.7093 20.8582 31.019 21.5535 31.019Z" fill="black"/>
<path d="M32.9697 0.464455V34.436L28.7555 33.1256L30.5144 0.464455H32.9697Z" fill="black"/>
<path d="M41.7089 34.9502C40.4662 34.9502 39.396 34.4139 38.4982 33.3412C37.6058 32.2575 36.9161 30.737 36.4288 28.7796C35.9471 26.8112 35.7062 24.5055 35.7062 21.8626C35.7062 19.2528 35.9471 16.9526 36.4288 14.9621C36.9161 12.9716 37.5949 11.4179 38.4653 10.3009C39.3412 9.18405 40.3649 8.62559 41.5365 8.62559C42.2481 8.62559 42.9379 8.86335 43.6058 9.33886C44.2737 9.81438 44.8731 10.5608 45.4041 11.5782C45.9352 12.5956 46.354 13.9171 46.6605 15.5427C46.9671 17.1572 47.1204 19.1201 47.1204 21.4313V23.1896H37.094V19.4739H44.7144C44.7144 18.169 44.583 17.0134 44.3202 16.0071C44.0574 14.9897 43.6879 14.188 43.2116 13.6019C42.7408 13.0158 42.1879 12.7227 41.5529 12.7227C40.8631 12.7227 40.2609 13.0656 39.7463 13.7512C37.094 6.15403 38.8431 15.3104 38.5639 16.4052C38.2901 17.4889 37.094 18.3515 37.094 19.6232V22.8846C37.094 24.5876 38.3011 25.9929 38.5967 27.1872C38.8978 28.3815 39.3166 29.2938 39.8531 29.9242C40.3896 30.5434 41.0164 30.8531 41.7335 30.8531C42.1989 30.8531 42.6231 30.7204 43.0063 30.455C43.3896 30.1785 43.7208 29.7694 44 29.2275C44.2791 28.6856 44.4927 28.0166 44.6405 27.2204L46.9644 28.0664C46.7782 29.4487 46.4443 30.6596 45.9625 31.6991C45.4863 32.7275 44.8868 33.5292 44.1642 34.1043C43.447 34.6682 42.6286 34.9502 41.7089 34.9502Z" fill="black"/>
<path d="M50.0417 34.436V4.86019L52.4969 0.464455V13.0877H52.6447C52.7871 12.5569 52.9924 11.9431 53.2606 11.2464C53.5289 10.5498 53.9011 9.94155 54.3774 9.4218C54.8537 8.891 55.4832 8.62559 56.2661 8.62559C57.2843 8.62559 58.1931 9.14534 58.9923 10.1848C59.7916 11.2243 60.4184 12.7228 60.8728 14.6801C61.3326 16.6374 61.5626 18.9929 61.5626 21.7464C61.5626 24.5 61.3354 26.861 60.881 28.8294C60.4266 30.7867 59.8025 32.2962 59.0088 33.3578C58.215 34.4084 57.309 34.9336 56.2907 34.9336C55.5243 34.9336 54.8975 34.6738 54.4102 34.154C53.9285 33.6343 53.5508 33.0261 53.277 32.3294C53.0033 31.6327 52.7926 31.0134 52.6447 30.4716H52.4395V34.436H50.0417ZM52.4477 21.6967C52.4477 23.4882 52.5763 25.0585 52.8336 26.4076C53.0909 27.7567 53.4632 28.8128 53.9504 29.5758C54.4376 30.3278 55.0343 30.7038 55.7405 30.7038C56.4741 30.7038 57.0872 30.3112 57.5799 29.5261C58.0726 28.7299 58.4449 27.6517 58.6967 26.2915C58.954 24.9313 59.0827 23.3997 59.0827 21.6967C59.0827 20.0158 58.9568 18.5063 58.7049 17.1682C58.4586 15.8302 58.0863 14.7741 57.5881 14C57.0954 13.2259 56.4796 12.8389 55.7405 12.8389C55.0289 12.8389 54.4267 13.2093 53.934 13.9502C53.4467 14.6912 53.0772 15.7251 52.8254 17.0521C52.5736 18.3791 52.4477 19.9273 52.4477 21.6967Z" fill="black"/>
<path d="M66.43 0.464455V3.64929C66.43 4.58926 66.3424 5.57899 66.1672 6.61848C65.9975 7.64692 65.7567 8.63665 65.4446 9.58768C65.1326 10.5387 64.7658 11.357 64.3443 12.0427L63.1289 10.2844C63.4519 9.33333 63.7311 8.32149 63.9665 7.24882C64.2074 6.17615 64.3278 4.99289 64.3278 3.69905V0.464455H66.43Z" fill="black"/>
<path d="M76.6617 15.1777L74.4364 15.9739C74.3433 15.3989 74.1955 14.8515 73.9929 14.3318C73.7958 13.812 73.5276 13.3863 73.1882 13.0545C72.8488 12.7227 72.4245 12.5569 71.9154 12.5569C71.2201 12.5569 70.6398 12.872 70.1745 13.5024C69.7092 14.1216 69.4765 14.9234 69.4765 15.9076C69.4765 16.7591 69.6326 17.4447 69.9446 17.9645C70.2566 18.4842 70.7603 18.91 71.4555 19.2417L73.4592 20.1706C74.6197 20.7125 75.4847 21.5474 76.054 22.6754C76.6234 23.8033 76.908 25.2686 76.908 27.0711C76.908 28.5972 76.6891 29.9573 76.2511 31.1517C75.8186 32.3349 75.2137 33.2638 74.4364 33.9384C73.6645 34.613 72.7694 34.9502 71.7511 34.9502C70.3387 34.9502 69.1864 34.342 68.2941 33.1256C67.4017 31.8981 64.1691 28.6635 63.9665 26.4076L69.0249 27.1706C69.1727 28.4202 69.4765 29.3657 69.9364 30.0071C70.3962 30.6374 70.9957 30.9526 71.7347 30.9526C72.5395 30.9526 73.1827 30.6153 73.6645 29.9408C74.1462 29.2551 74.3871 28.4202 74.3871 27.436C74.3871 26.6398 74.2393 25.9708 73.9437 25.4289C73.6535 24.887 73.2073 24.4779 72.6052 24.2014L70.4701 23.2559C69.2931 22.7141 68.4227 21.8515 67.8588 20.6682C67.3004 19.485 67.0213 17.9866 67.0213 16.173C67.0213 14.669 67.2293 13.3531 67.6453 12.2251C68.0614 11.0972 68.6362 10.218 69.3698 9.58768C70.1034 8.94629 70.9437 8.62559 71.8907 8.62559C73.2539 8.62559 74.3269 9.22275 75.1097 10.4171C75.8925 11.6003 76.4099 13.1872 76.6617 15.1777Z" fill="black"/>
<path d="M85.9244 34.436V3.64929L92.0831 0.464455C93.2766 0.464455 94.2647 0.86256 95.0475 1.65877C95.8304 2.44392 96.4161 3.51106 96.8048 4.86019C97.1935 6.19826 97.3879 7.70774 97.3879 9.38863C97.3879 10.8041 97.2592 11.9984 97.0019 12.9716C96.7446 13.9337 96.3997 14.7077 95.9672 15.2938C95.5402 15.8689 95.0694 16.2891 94.5548 16.5545V16.8863C95.1132 16.9416 95.6579 17.3065 96.189 17.981C96.7254 18.6446 97.1689 19.59 97.5192 20.8175C97.8696 22.045 98.0448 23.5379 98.0448 25.2962C98.0448 27.0324 97.8422 28.5916 97.4371 29.9739C97.0375 31.3452 96.4189 32.4344 95.5813 33.2417C94.7437 34.0379 93.6735 34.436 92.3705 34.436H85.9244ZM88.4618 30.0403H92.1242C93.3395 30.0403 94.21 29.5648 94.7355 28.6137C95.261 27.6627 95.5238 26.4739 95.5238 25.0474C95.5238 23.9747 95.3897 22.9905 95.1214 22.0948C94.8532 21.1991 94.47 20.4858 93.9718 19.955C93.4791 19.4242 92.8934 19.1588 92.2145 19.1588H88.4618V30.0403ZM88.4618 15.1611H91.8614C92.4308 15.1611 92.9426 14.94 93.397 14.4976C93.8569 14.0553 94.2209 13.436 94.4891 12.6398C94.7629 11.8325 94.8997 10.8815 94.8997 9.78673C94.8997 8.38231 94.6561 7.20458 94.1689 6.25356C93.6817 5.30253 92.9344 4.82701 91.9271 4.82701H88.4618V15.1611Z" fill="#BB6413"/>
<path d="M100.857 34.436V8.95735H103.23V13.0047H103.362C103.592 11.6335 103.997 10.5553 104.577 9.77014C105.163 8.97393 105.825 8.57583 106.564 8.57583C106.718 8.57583 106.898 8.58689 107.106 8.60901C107.32 8.63112 107.487 8.65877 107.607 8.69194V13.436C107.509 13.3807 107.333 13.3199 107.082 13.2536C106.83 13.1761 107.859 13.436 107.607 13.436C107.027 13.436 105.229 13.3863 104.774 13.8839C104.325 14.3705 103.969 15.0506 103.707 15.9242C103.444 16.7867 103.313 17.7709 103.313 18.8768L104.577 33.9384L100.857 34.436Z" fill="black"/>
<path d="M113.29 35C112.49 35 111.768 34.7014 111.122 34.1043C110.476 33.4961 109.964 32.6169 109.586 31.4668C109.214 30.3167 109.028 28.9068 109.028 27.237C109.028 25.7994 109.165 24.6161 109.438 23.6872C109.712 22.7583 110.082 22.0229 110.547 21.481C111.012 20.9392 111.532 20.53 112.107 20.2536C112.682 19.9771 113.268 19.767 113.864 19.6232C114.62 19.4463 115.233 19.3025 115.704 19.1919C116.175 19.0703 116.517 18.8768 116.73 18.6114C116.944 18.346 117.051 17.9147 117.051 17.3175V17.2014C117.051 15.7528 116.848 14.6303 116.443 13.8341C116.043 13.0379 115.447 12.6398 114.653 12.6398C113.826 12.6398 113.175 13.0103 112.698 13.7512C112.228 14.481 111.902 15.2938 111.721 16.1896L109.414 15.128C109.688 13.5798 110.087 12.3302 110.613 11.3791C111.144 10.4171 111.754 9.72038 112.444 9.2891C113.134 8.84676 113.859 8.62559 114.62 8.62559C115.124 8.62559 115.657 8.74724 116.221 8.99052C116.791 9.22275 117.322 9.65403 117.814 10.2844C118.312 10.9147 118.72 11.816 119.038 12.9882C119.355 14.1493 119.514 15.6588 119.514 17.5166L121.251 35L117.116 34.436V30.9526H117.018C116.859 31.594 116.621 32.2243 116.303 32.8436C115.986 33.4629 115.578 33.9771 115.08 34.3863C114.582 34.7954 113.985 35 113.29 35ZM113.823 31.019C114.502 31.019 115.083 30.748 115.564 30.2062C116.052 29.6643 116.421 28.9566 116.673 28.0829C116.93 27.1983 117.059 26.2528 117.059 25.2464V21.9621C116.971 22.139 116.802 22.3049 116.55 22.4597C116.303 22.6035 116.021 22.7307 115.704 22.8412C115.386 22.9408 115.077 23.0348 114.776 23.1232C114.475 23.2006 114.223 23.267 114.021 23.3223C113.544 23.4439 113.109 23.6485 112.715 23.936C112.326 24.2235 112.014 24.6382 111.779 25.1801C111.549 25.7109 111.434 26.4186 111.434 27.3033C111.434 28.5308 111.658 29.4597 112.107 30.09C112.556 30.7093 113.128 31.019 113.823 31.019Z" fill="black"/>
<path d="M125.24 19.3081V34.436H122.784L119.514 8.99052L125.141 8.95735V13.1043H125.297C125.587 11.7551 126.042 10.6714 126.66 9.85308C127.284 9.03476 128.07 8.62559 129.017 8.62559C129.876 8.62559 130.629 8.99052 131.275 9.72038C131.921 10.4392 132.422 11.5118 132.778 12.9384C133.134 14.3649 133.312 16.1288 133.312 18.2299V34.436H130.856V18.827C130.856 16.9803 130.618 15.5371 130.142 14.4976C129.666 13.4471 129.012 12.9218 128.179 12.9218C127.61 12.9218 127.104 13.1706 126.66 13.6682C126.222 14.1659 125.875 14.8957 125.617 15.8578C125.366 16.8088 125.24 17.9589 125.24 19.3081Z" fill="black"/>
<path d="M141.326 34.9336C140.308 34.9336 139.399 34.4084 138.6 33.3578C137.806 32.2962 137.182 30.7867 136.728 28.8294C136.279 26.861 135.126 22.3768 135.126 19.6232C135.126 16.8697 136.282 16.6374 136.736 14.6801C137.196 12.7228 137.825 11.2243 138.625 10.1848C139.424 9.14534 140.33 8.62559 141.343 8.62559C142.125 8.62559 142.755 8.891 143.231 9.4218C143.713 9.94155 144.085 10.5498 144.348 11.2464C144.616 11.9431 144.824 12.5569 144.972 13.0877H145.12V0.464455L149 4.86019L147.575 34.436H145.177V30.4716H144.972C144.824 31.0134 144.611 31.6327 144.332 32.3294C144.058 33.0261 143.68 33.6343 143.198 34.154C142.717 34.6738 142.093 34.9336 141.326 34.9336ZM141.868 30.7038C142.574 30.7038 143.171 30.3278 143.658 29.5758C144.151 28.8128 144.523 27.7567 144.775 26.4076C145.032 25.0585 145.161 23.4882 145.161 21.6967C145.161 19.9273 145.035 18.3791 144.783 17.0521C144.531 15.7251 144.162 14.6912 143.675 13.9502C143.188 13.2093 142.585 12.8389 141.868 12.8389C141.129 12.8389 140.513 13.2259 140.021 14C139.528 14.7741 139.156 15.8302 138.904 17.1682C138.657 18.5063 138.534 20.0158 138.534 21.6967C138.534 23.3997 138.66 24.9313 138.912 26.2915C139.164 27.6517 139.536 28.7299 140.029 29.5261C140.527 30.3112 141.14 30.7038 141.868 30.7038Z" fill="black"/>
</svg>
