<svg width="73" height="68" viewBox="0 0 73 68" fill="none" xmlns="http://www.w3.org/2000/svg">
<rect x="0.5" y="0.5" width="72" height="67" fill="#D3F6E6"/>
<rect x="0.5" y="0.5" width="72" height="67" stroke="black"/>
<path d="M48.6668 28.3333C48.6668 31.3391 47.385 34.2218 45.1033 36.3472C42.8216 38.4726 39.727 39.6667 36.5002 39.6667C33.2734 39.6667 30.1787 38.4726 27.897 36.3472C25.6153 34.2218 24.3335 31.3391 24.3335 28.3333C24.3335 25.3275 25.6153 22.4449 27.897 20.3195C30.1787 18.194 33.2734 17 36.5002 17C39.727 17 42.8216 18.194 45.1033 20.3195C47.385 22.4449 48.6668 25.3275 48.6668 28.3333Z" fill="black"/>
<path fill-rule="evenodd" clip-rule="evenodd" d="M35.2592 62.3107C19.0364 61.7044 6.0835 49.2604 6.0835 34C6.0835 18.3515 19.701 5.66669 36.5002 5.66669C53.2993 5.66669 66.9168 18.3515 66.9168 34C66.9168 49.6485 53.2993 62.3334 36.5002 62.3334C36.3613 62.3342 36.2224 62.3342 36.0835 62.3334C35.8082 62.3334 35.5329 62.3249 35.2592 62.3107ZM16.9818 51.8783C16.7544 51.27 16.677 50.6217 16.7553 49.9817C16.8337 49.3417 17.0657 48.7263 17.4344 48.1812C17.803 47.6362 18.2986 47.1755 18.8845 46.8333C19.4705 46.4911 20.1316 46.2762 20.8189 46.2046C32.6753 44.982 40.3981 45.0925 52.1967 46.2301C52.8849 46.2969 53.5476 46.509 54.1345 46.8504C54.7214 47.1919 55.2168 47.6535 55.5832 48.2003C55.9496 48.747 56.1772 49.3644 56.2486 50.0055C56.3201 50.6466 56.2336 51.2944 55.9957 51.8996C61.0524 47.1338 63.8842 40.7008 63.8752 34C63.8752 19.9169 51.6188 8.50002 36.5002 8.50002C21.3816 8.50002 9.12516 19.9169 9.12516 34C9.12516 40.9644 12.1227 47.277 16.9818 51.8783Z" fill="black"/>
</svg>
