<svg width="76" height="76" viewBox="0 0 76 76" fill="none" xmlns="http://www.w3.org/2000/svg">
<rect width="76" height="76" fill="#D3F6E6"/>
<path d="M30.997 0C40.517 0 49.3318 4.22356 55.177 11.3355C55.3436 11.5371 55.4678 11.7701 55.5425 12.0207C55.6171 12.2714 55.6406 12.5344 55.6115 12.7943C55.5824 13.0542 55.5013 13.3056 55.3731 13.5335C55.2449 13.7614 55.0722 13.9612 54.8652 14.1209C54.4439 14.4512 53.9105 14.6044 53.3781 14.5479C52.8458 14.4913 52.3564 14.2296 52.0138 13.8182C49.4578 10.7216 46.2465 8.23104 42.6116 6.52629C38.9766 4.82154 35.0086 3.94509 30.9939 3.96016C16.116 3.96016 4.05322 15.7437 4.05322 30.2764C4.05322 44.8091 16.116 56.5927 30.9939 56.5927C35.0665 56.6082 39.0903 55.7065 42.7668 53.9544C46.4434 52.2022 49.6783 49.6446 52.2317 46.4713C52.5686 46.0556 53.054 45.7874 53.5851 45.7236C54.1163 45.6597 54.6514 45.8052 55.0771 46.1292C55.2859 46.2862 55.461 46.4836 55.592 46.7097C55.723 46.9357 55.8073 47.1858 55.8397 47.4451C55.8722 47.7044 55.8523 47.9675 55.7811 48.2189C55.7098 48.4703 55.5888 48.7048 55.4252 48.9085C49.5891 56.2052 40.6563 60.5528 30.997 60.5528C13.873 60.5528 0 46.9981 0 30.2764C0 13.5548 13.876 0 30.997 0ZM51.7565 21.6779L59.9477 29.8737C60.7407 30.664 60.7559 31.9325 59.984 32.7076L51.9805 40.7097C51.6007 41.0814 51.0889 41.287 50.5575 41.2813C50.0262 41.2756 49.5189 41.0591 49.1471 40.6794C48.9585 40.4954 48.808 40.2761 48.7042 40.0339C48.6004 39.7917 48.5454 39.5314 48.5423 39.2679C48.5392 39.0044 48.5881 38.7428 48.6862 38.4983C48.7843 38.2537 48.9296 38.0308 49.1139 37.8425L53.7967 33.1587H22.5878C22.3247 33.1619 22.0635 33.1133 21.8191 33.0155C21.5748 32.9177 21.3521 32.7727 21.1637 32.5889C20.9754 32.405 20.8251 32.1858 20.7215 31.9439C20.6178 31.7019 20.5629 31.4419 20.5597 31.1787C20.5597 30.0827 21.4678 29.1956 22.5878 29.1956H53.6726L48.9564 24.4785C48.5764 24.1071 48.3594 23.5999 48.3531 23.0684C48.3469 22.537 48.5519 22.0249 48.9231 21.6446C49.3033 21.2733 49.8154 21.0682 50.3467 21.0745C50.878 21.0807 51.3851 21.2978 51.7565 21.6779Z" fill="black"/>
</svg>
