<svg width="59" height="59" viewBox="0 0 59 59" fill="none" xmlns="http://www.w3.org/2000/svg">
<path d="M29.5 0C21.6761 0 14.1727 3.10803 8.64035 8.64035C3.10803 14.1727 0 21.6761 0 29.5C0 37.3239 3.10803 44.8273 8.64035 50.3596C14.1727 55.892 21.6761 59 29.5 59C37.3239 59 44.8273 55.892 50.3596 50.3596C55.892 44.8273 59 37.3239 59 29.5C59 21.6761 55.892 14.1727 50.3596 8.64035C44.8273 3.10803 37.3239 0 29.5 0ZM12.0729 17.4271H40.2355C41.6513 17.4477 43.0024 18.0235 43.9978 19.0304C44.9933 20.0374 45.5535 21.395 45.5578 22.8109V37.2241C45.5357 38.6368 44.9648 39.9855 43.966 40.9847C42.9671 41.984 41.6187 42.5555 40.206 42.5783H19.765C16.8789 42.5783 14.75 40.1446 14.75 37.2241V25.8199L11.0699 19.4331C10.3078 18.4006 10.947 17.4271 12.0729 17.4271ZM20.4681 22.8109C19.615 22.8109 18.7964 23.3271 18.7964 24.1482C18.7964 24.9693 19.615 25.4855 20.4681 25.4855H39.9012C40.7518 25.4855 41.5729 24.9693 41.5729 24.1482C41.5729 23.3271 40.7518 22.8084 39.9012 22.8084L20.4681 22.8109ZM20.4681 28.1627C19.615 28.1627 18.7964 28.6789 18.7964 29.5C18.7964 30.3211 19.615 30.8373 20.4681 30.8373H39.9012C40.7518 30.8373 41.5729 30.3211 41.5729 29.5C41.5729 28.6789 40.7518 28.1627 39.9012 28.1627H20.4681ZM20.4361 33.5464C19.5855 33.5464 18.7645 34.0627 18.7645 34.8837C18.7645 35.7048 19.5855 36.2211 20.4361 36.2211H34.5175C35.3705 36.2211 36.1891 35.7048 36.1891 34.8837C36.1891 34.0627 35.3705 33.544 34.5175 33.544L20.4361 33.5464Z" fill="black"/>
</svg>
