<svg width="159" height="40" viewBox="0 0 159 40" fill="none" xmlns="http://www.w3.org/2000/svg">
<path d="M15.4237 13.0695H12.7003C12.5956 11.814 12.4007 10.7092 12.1155 9.75502C11.8304 8.80086 11.4812 7.99108 11.0681 7.32568C10.6549 6.66028 10.1923 6.15809 9.68019 5.81912C9.17393 5.48014 8.63565 5.31065 8.06537 5.31065C7.03538 5.31065 6.11304 5.86934 5.29836 6.98671C4.48949 8.10408 3.84938 9.74247 3.37803 11.9019C2.9125 14.0613 2.67973 16.6978 2.67973 19.8114C2.67973 22.95 2.9125 25.5991 3.37803 27.7585C3.84938 29.9179 4.4924 31.55 5.30709 32.6548C6.12177 33.7597 7.03829 34.3121 8.05664 34.3121C8.6211 34.3121 9.15647 34.1489 9.66274 33.8224C10.1748 33.4835 10.6374 32.9875 11.0506 32.3347C11.4638 31.6819 11.8129 30.8846 12.0981 29.943C12.389 28.9889 12.5898 27.8966 12.7003 26.6662L15.4237 26.6851C18.2497 26.8922 14.996 30.3259 14.577 31.9204C14.1639 33.5023 13.6314 34.8708 12.9797 36.0258C12.3337 37.1683 11.5947 38.0534 10.7626 38.6811C9.93042 39.3088 9.02263 39.6227 8.03919 39.6227C6.49129 39.6227 5.11214 38.8318 3.90176 37.2499C2.69137 35.6554 1.73702 33.3767 1.03872 30.4138C0.346241 27.4509 0 23.9168 0 19.8114C0 15.6934 0.34915 12.1593 1.04745 9.20889C1.74575 6.24598 2.7001 3.97357 3.91048 2.39168C5.12087 0.797225 6.49711 0 8.03919 0C8.98771 0 9.87223 0.295037 10.6927 0.88511C11.5191 1.46263 12.261 2.31635 12.9186 3.44627C13.5761 4.56364 14.1202 5.93211 14.5508 7.55167C14.9815 9.15867 15.2724 10.9979 15.4237 13.0695Z" fill="#E17714"/>
<path d="M22.3434 39.7357C21.4938 39.7357 20.7257 39.3967 20.039 38.7188C19.3524 38.0283 18.8083 37.0302 18.4068 35.7245C18.0111 34.4188 17.8132 32.8181 17.8132 30.9223C17.8132 29.2902 17.9587 27.9468 18.2497 26.8922C18.5406 25.8376 18.9334 25.0027 19.428 24.3876C19.9227 23.7724 20.4755 23.3079 21.0865 22.994C21.6975 22.6801 22.3202 22.4416 22.9545 22.2784C23.7575 22.0775 24.4092 21.9143 24.9097 21.7887C25.4101 21.6506 25.7738 21.4309 26.0008 21.1296C26.2277 20.8283 26.3412 20.3387 26.3412 19.6607V19.5289C26.3412 17.8842 26.1259 16.6099 25.6953 15.706C25.2705 14.802 24.6362 14.3501 23.7924 14.3501C22.9137 14.3501 22.2212 14.7706 21.715 15.6118C21.2145 16.4404 20.8683 17.3632 20.6762 18.3801L18.2235 17.1749C18.5144 15.4172 18.9392 13.9985 19.4979 12.9188C20.0623 11.8266 20.7112 11.0356 21.4444 10.546C22.1776 10.0438 22.9486 9.79269 23.7575 9.79269C24.2929 9.79269 24.8602 9.93079 25.4596 10.207C26.0648 10.4706 26.6293 10.9603 27.153 11.6759C27.6825 12.3915 28.1161 13.4147 28.4536 14.7455C28.7911 16.0638 28.9598 17.7775 28.9598 19.8867V39.0954H26.411V35.1407H26.3063C26.1375 35.8689 25.8844 36.5845 25.5469 37.2875C25.2094 37.9906 24.7759 38.5744 24.2463 39.0389C23.7168 39.5034 23.0825 39.7357 22.3434 39.7357ZM22.9108 35.216C23.6324 35.216 24.2492 34.9084 24.7613 34.2932C25.2792 33.6781 25.672 32.8746 25.9397 31.8827C26.2132 30.8784 26.3499 29.8049 26.3499 28.6624V24.9337C26.2568 25.1346 26.0764 25.3229 25.8088 25.4986C25.5469 25.6619 25.2472 25.8062 24.9097 25.9318C24.5722 26.0448 24.2434 26.1515 23.9233 26.2519C23.6033 26.3398 23.3356 26.4151 23.1203 26.4779C22.614 26.616 22.1514 26.8483 21.7324 27.1747C21.3193 27.5011 20.9876 27.9719 20.7373 28.5871C20.4929 29.1897 20.3707 29.9932 20.3707 30.9976C20.3707 32.3912 20.6093 33.4458 21.0865 34.1614C21.5637 34.8645 22.1718 35.216 22.9108 35.216Z" fill="white"/>
<path d="M35.046 0.527299V39.0954L30.5664 37.6077L32.4361 0.527299H35.046Z" fill="white"/>
<path d="M44.3355 39.6792C43.0146 39.6792 41.8769 39.0703 40.9226 37.8525C39.9741 36.6221 39.2409 34.8959 38.723 32.6737C38.2109 30.4389 37.9548 27.8213 37.9548 24.8207C37.9548 21.8578 38.2109 19.2464 38.723 16.9865C39.2409 14.7267 39.9624 12.9628 40.8877 11.6947C41.8188 10.4267 42.9069 9.79269 44.1522 9.79269C44.9087 9.79269 45.642 10.0626 46.3519 10.6025C47.0618 11.1423 47.699 11.9898 48.2635 13.1448C48.8279 14.2998 49.2731 15.8001 49.599 17.6457C49.9249 19.4787 50.0878 21.7071 50.0878 24.3311V26.3273H39.43V22.1089H47.5303C47.5303 20.6274 47.3906 19.3154 47.1113 18.173C46.832 17.0179 46.4392 16.1077 45.9329 15.4423C45.4325 14.7769 44.8447 14.4442 44.1697 14.4442C43.4365 14.4442 42.7964 14.8334 42.2494 15.6118C39.43 6.98671 41.2892 17.382 40.9924 18.6249C40.7015 19.8553 39.43 20.8346 39.43 22.2784V25.981C39.43 27.9145 40.7131 29.5099 41.0274 30.8658C41.3474 32.2217 41.7926 33.2575 42.3628 33.9731C42.9331 34.6762 43.5994 35.0277 44.3617 35.0277C44.8564 35.0277 45.3073 34.877 45.7147 34.5757C46.122 34.2619 46.4741 33.7973 46.7709 33.1821C47.0676 32.567 47.2946 31.8074 47.4517 30.9035L49.922 31.8639C49.7241 33.4332 49.3691 34.808 48.857 35.9881C48.3508 37.1557 47.7136 38.0659 46.9454 38.7188C46.1831 39.3591 45.3132 39.6792 44.3355 39.6792Z" fill="white"/>
<path d="M53.1931 39.0954V5.5178L55.803 0.527299V14.8585H55.9601C56.1114 14.2559 56.3296 13.5591 56.6147 12.7682C56.8999 11.9772 57.2956 11.2867 57.8018 10.6966C58.3081 10.094 58.9773 9.79269 59.8095 9.79269C60.8918 9.79269 61.8578 10.3828 62.7074 11.5629C63.557 12.743 64.2233 14.4442 64.7063 16.6664C65.1951 18.8886 65.4395 21.5627 65.4395 24.6889C65.4395 27.815 65.198 30.4954 64.715 32.7302C64.232 34.9524 63.5686 36.6661 62.7249 37.8713C61.8811 39.064 60.918 39.6604 59.8356 39.6604C59.021 39.6604 58.3547 39.3653 57.8368 38.7753C57.3247 38.1852 56.9231 37.4947 56.6322 36.7037C56.3412 35.9128 56.1172 35.2097 55.9601 34.5945H55.7419V39.0954H53.1931ZM55.7506 24.6324C55.7506 26.6662 55.8873 28.449 56.1608 29.9807C56.4343 31.5124 56.83 32.7113 57.3479 33.5776C57.8658 34.4313 58.5001 34.8582 59.2508 34.8582C60.0306 34.8582 60.6823 34.4125 61.2061 33.5211C61.7298 32.6172 62.1255 31.3931 62.3932 29.8489C62.6667 28.3046 62.8034 26.5658 62.8034 24.6324C62.8034 22.7241 62.6696 21.0103 62.4019 19.4912C62.14 17.9721 61.7443 16.7731 61.2148 15.8943C60.6911 15.0155 60.0364 14.576 59.2508 14.576C58.4943 14.576 57.8542 14.9966 57.3305 15.8378C56.8126 16.679 56.4198 17.8528 56.1521 19.3594C55.8844 20.866 55.7506 22.6236 55.7506 24.6324Z" fill="white"/>
<path d="M70.6135 0.527299V4.14306C70.6135 5.21021 70.5204 6.33386 70.3342 7.51401C70.1538 8.68159 69.8977 9.80524 69.566 10.8849C69.2343 11.9647 68.8445 12.8937 68.3964 13.6721L67.1045 11.6759C67.4478 10.5962 67.7446 9.44743 67.9948 8.22962C68.2509 7.01181 68.3789 5.66846 68.3789 4.19956V0.527299H70.6135Z" fill="white"/>
<path d="M81.4895 17.2314L79.124 18.1353C79.0251 17.4825 78.868 16.861 78.6527 16.2709C78.4432 15.6809 78.158 15.1975 77.7972 14.8209C77.4365 14.4442 76.9855 14.2559 76.4443 14.2559C75.7052 14.2559 75.0884 14.6137 74.5938 15.3293C74.0992 16.0324 73.8518 16.9426 73.8518 18.06C73.8518 19.0267 74.0177 19.8051 74.3494 20.3952C74.6811 20.9852 75.2164 21.4686 75.9555 21.8452L78.0853 22.8998C79.319 23.515 80.2384 24.4629 80.8436 25.7435C81.4488 27.0241 81.7514 28.6876 81.7514 30.734C81.7514 32.4665 81.5186 34.0108 81.0531 35.3667C80.5934 36.71 79.9503 37.7646 79.124 38.5305C78.3035 39.2963 77.3521 39.6792 76.2697 39.6792C74.7684 39.6792 73.5434 38.9887 72.5949 37.6077C71.6464 36.2141 68.2102 32.5419 67.9948 29.9807L73.3718 30.847C73.5289 32.2656 73.8518 33.3391 74.3407 34.0673C74.8295 34.7829 75.4667 35.1407 76.2523 35.1407C77.1077 35.1407 77.7914 34.7578 78.3035 33.9919C78.8156 33.2135 79.0716 32.2656 79.0716 31.1483C79.0716 30.2443 78.9145 29.4848 78.6003 28.8696C78.2919 28.2544 77.8176 27.7899 77.1775 27.476L74.908 26.4026C73.6569 25.7874 72.7317 24.8081 72.1323 23.4648C71.5387 22.1214 71.2419 20.4203 71.2419 18.3613C71.2419 16.6538 71.4631 15.1598 71.9053 13.8793C72.3476 12.5987 72.9586 11.6006 73.7384 10.8849C74.5181 10.1568 75.4114 9.79269 76.4181 9.79269C77.8671 9.79269 79.0076 10.4706 79.8398 11.8266C80.6719 13.1699 81.2218 14.9715 81.4895 17.2314Z" fill="white"/>
<path d="M91.3355 39.0954V4.14306L97.8821 0.527299C99.1507 0.527299 100.201 0.979269 101.033 1.88321C101.865 2.7746 102.488 3.98613 102.901 5.5178C103.314 7.03692 103.521 8.75065 103.521 10.659C103.521 12.266 103.384 13.6219 103.111 14.7267C102.837 15.819 102.471 16.6978 102.011 17.3632C101.557 18.016 101.056 18.4931 100.509 18.7944V19.1711C101.103 19.2338 101.682 19.6481 102.246 20.414C102.817 21.1673 103.288 22.2407 103.661 23.6343C104.033 25.0278 104.219 26.7227 104.219 28.7189C104.219 30.69 104.004 32.4602 103.573 34.0296C103.148 35.5864 102.491 36.823 101.601 37.7395C100.71 38.6434 99.5726 39.0954 98.1876 39.0954H91.3355ZM94.0327 34.1049H97.9258C99.2176 34.1049 100.143 33.5651 100.702 32.4854C101.26 31.4056 101.539 30.056 101.539 28.4365C101.539 27.2186 101.397 26.1013 101.112 25.0843C100.827 24.0674 100.419 23.2576 99.8897 22.655C99.366 22.0524 98.7434 21.7511 98.0218 21.7511H94.0327V34.1049ZM94.0327 17.2125H97.6464C98.2516 17.2125 98.7957 16.9614 99.2787 16.4592C99.7675 15.9571 100.155 15.254 100.44 14.3501C100.731 13.4336 100.876 12.3539 100.876 11.1109C100.876 9.51648 100.617 8.17941 100.099 7.0997C99.5813 6.01999 98.787 5.48014 97.7163 5.48014H94.0327V17.2125Z" fill="#E17714"/>
<path d="M107.209 39.0954V10.1693H109.731V14.7644H109.871C110.115 13.2076 110.546 11.9835 111.163 11.0921C111.786 10.1882 112.49 9.73619 113.275 9.73619C113.438 9.73619 113.63 9.74875 113.851 9.77386C114.078 9.79896 114.256 9.83035 114.384 9.86802V15.254C114.279 15.1912 114.093 15.1222 113.825 15.0468C113.558 14.959 114.652 15.254 114.384 15.254C113.767 15.254 111.855 15.1975 111.372 15.7625C110.895 16.3149 110.517 17.087 110.238 18.0788C109.958 19.0581 109.819 20.1754 109.819 21.4309L111.163 38.5305L107.209 39.0954Z" fill="white"/>
<path d="M120.424 39.7357C119.575 39.7357 118.806 39.3967 118.12 38.7188C117.433 38.0283 116.889 37.0302 116.487 35.7245C116.092 34.4188 115.894 32.8181 115.894 30.9223C115.894 29.2902 116.039 27.9468 116.33 26.8922C116.621 25.8376 117.014 25.0027 117.509 24.3876C118.003 23.7724 118.556 23.3079 119.167 22.994C119.778 22.6801 120.401 22.4416 121.035 22.2784C121.838 22.0775 122.49 21.9143 122.99 21.7887C123.491 21.6506 123.855 21.4309 124.081 21.1296C124.308 20.8283 124.422 20.3387 124.422 19.6607V19.5289C124.422 17.8842 124.207 16.6099 123.776 15.706C123.351 14.802 122.717 14.3501 121.873 14.3501C120.994 14.3501 120.302 14.7706 119.796 15.6118C119.295 16.4404 118.949 17.3632 118.757 18.3801L116.304 17.1749C116.595 15.4172 117.02 13.9985 117.579 12.9188C118.143 11.8266 118.792 11.0356 119.525 10.546C120.258 10.0438 121.029 9.79269 121.838 9.79269C122.374 9.79269 122.941 9.93079 123.54 10.207C124.145 10.4706 124.71 10.9603 125.234 11.6759C125.763 12.3915 126.197 13.4147 126.534 14.7455C126.872 16.0638 127.041 17.7775 127.041 19.8867L128.887 39.7357L124.492 39.0954V35.1407H124.387C124.218 35.8689 123.965 36.5845 123.628 37.2875C123.29 37.9906 122.857 38.5744 122.327 39.0389C121.797 39.5034 121.163 39.7357 120.424 39.7357ZM120.992 35.216C121.713 35.216 122.33 34.9084 122.842 34.2932C123.36 33.6781 123.753 32.8746 124.02 31.8827C124.294 30.8784 124.431 29.8049 124.431 28.6624V24.9337C124.338 25.1346 124.157 25.3229 123.889 25.4986C123.628 25.6619 123.328 25.8062 122.99 25.9318C122.653 26.0448 122.324 26.1515 122.004 26.2519C121.684 26.3398 121.416 26.4151 121.201 26.4779C120.695 26.616 120.232 26.8483 119.813 27.1747C119.4 27.5011 119.068 27.9719 118.818 28.5871C118.574 29.1897 118.451 29.9932 118.451 30.9976C118.451 32.3912 118.69 33.4458 119.167 34.1614C119.644 34.8645 120.252 35.216 120.992 35.216Z" fill="white"/>
<path d="M133.127 21.9206V39.0954H130.517L127.041 10.207L133.022 10.1693V14.8774H133.188C133.496 13.3457 133.979 12.1153 134.637 11.1863C135.3 10.2572 136.135 9.79269 137.142 9.79269C138.055 9.79269 138.856 10.207 139.542 11.0356C140.229 11.8517 140.761 13.0695 141.14 14.689C141.518 16.3086 141.707 18.3111 141.707 20.6965V39.0954H139.097V21.3744C139.097 19.2778 138.844 17.6394 138.338 16.4592C137.831 15.2665 137.136 14.6702 136.252 14.6702C135.646 14.6702 135.108 14.9527 134.637 15.5176C134.171 16.0826 133.802 16.9112 133.528 18.0035C133.261 19.0832 133.127 20.3889 133.127 21.9206Z" fill="white"/>
<path d="M150.226 39.6604C149.144 39.6604 148.178 39.064 147.328 37.8713C146.485 36.6661 145.821 34.9524 145.338 32.7302C144.861 30.4954 143.635 25.4045 143.635 22.2784C143.635 19.1522 144.864 18.8886 145.347 16.6664C145.836 14.4442 146.505 12.743 147.355 11.5629C148.204 10.3828 149.167 9.79269 150.244 9.79269C151.076 9.79269 151.745 10.094 152.251 10.6966C152.763 11.2867 153.159 11.9772 153.438 12.7682C153.724 13.5591 153.945 14.2559 154.102 14.8585H154.259V0.527299L158.383 5.5178L156.869 39.0954H154.32V34.5945H154.102C153.945 35.2097 153.718 35.9128 153.421 36.7037C153.13 37.4947 152.729 38.1852 152.216 38.7753C151.704 39.3653 151.041 39.6604 150.226 39.6604ZM150.802 34.8582C151.553 34.8582 152.187 34.4313 152.705 33.5776C153.229 32.7113 153.625 31.5124 153.892 29.9807C154.166 28.449 154.303 26.6662 154.303 24.6324C154.303 22.6236 154.169 20.866 153.901 19.3594C153.633 17.8528 153.241 16.679 152.723 15.8378C152.205 14.9966 151.565 14.576 150.802 14.576C150.017 14.576 149.362 15.0155 148.838 15.8943C148.315 16.7731 147.919 17.9721 147.651 19.4912C147.389 21.0103 147.259 22.7241 147.259 24.6324C147.259 26.5658 147.392 28.3046 147.66 29.8489C147.928 31.3931 148.323 32.6172 148.847 33.5211C149.377 34.4125 150.028 34.8582 150.802 34.8582Z" fill="white"/>
</svg>
