<svg width="25" height="25" viewBox="0 0 25 25" fill="none" xmlns="http://www.w3.org/2000/svg">
<path d="M20.84 9.82013L6.84 2.82013C6.28749 2.54514 5.66362 2.44724 5.05344 2.53978C4.44326 2.63232 3.87646 2.9108 3.43033 3.33724C2.98421 3.76369 2.68046 4.31735 2.5605 4.92274C2.44054 5.52813 2.5102 6.15578 2.76 6.72013L5.16 12.0901C5.21446 12.22 5.24251 12.3593 5.24251 12.5001C5.24251 12.6409 5.21446 12.7803 5.16 12.9101L2.76 18.2801C2.5567 18.7368 2.47076 19.2371 2.50998 19.7355C2.5492 20.2339 2.71235 20.7145 2.98459 21.1338C3.25682 21.5531 3.62953 21.8977 4.06883 22.1363C4.50812 22.375 5.00009 22.5 5.5 22.5001C5.96823 22.4955 6.42949 22.3861 6.85 22.1801L20.85 15.1801C21.3466 14.9303 21.764 14.5474 22.0557 14.0742C22.3474 13.601 22.5018 13.056 22.5018 12.5001C22.5018 11.9442 22.3474 11.3993 22.0557 10.9261C21.764 10.4528 21.3466 10.0699 20.85 9.82013H20.84ZM19.95 13.3901L5.95 20.3901C5.76617 20.4784 5.55973 20.5084 5.35839 20.476C5.15705 20.4436 4.97041 20.3504 4.82352 20.209C4.67662 20.0675 4.57648 19.8845 4.53653 19.6846C4.49658 19.4846 4.51873 19.2772 4.6 19.0901L6.99 13.7201C7.02094 13.6484 7.04766 13.575 7.07 13.5001H13.96C14.2252 13.5001 14.4796 13.3948 14.6671 13.2072C14.8546 13.0197 14.96 12.7653 14.96 12.5001C14.96 12.2349 14.8546 11.9806 14.6671 11.793C14.4796 11.6055 14.2252 11.5001 13.96 11.5001H7.07C7.04766 11.4253 7.02094 11.3518 6.99 11.2801L4.6 5.91013C4.51873 5.72309 4.49658 5.51568 4.53653 5.3157C4.57648 5.11572 4.67662 4.93273 4.82352 4.79128C4.97041 4.64982 5.15705 4.55666 5.35839 4.52428C5.55973 4.4919 5.76617 4.52186 5.95 4.61013L19.95 11.6101C20.1138 11.694 20.2513 11.8215 20.3473 11.9786C20.4433 12.1356 20.494 12.3161 20.494 12.5001C20.494 12.6842 20.4433 12.8647 20.3473 13.0217C20.2513 13.1787 20.1138 13.3062 19.95 13.3901Z" fill="white"/>
</svg>
